<?xml version="1.0" encoding="UTF-8"?>
<!DOCTYPE svg
PUBLIC "-//W3C//DTD SVG 1.1//EN"
       "http://www.w3.org/Graphics/SVG/1.1/DTD/svg11.dtd">
<svg viewBox="33 -2 1186 582" width="1153px" height="584px" xmlns="http://www.w3.org/2000/svg" version="1.1">
   <line x1="254" y1="263" x2="264" y2="263" style="stroke:#0b0;stroke-width:1;"/>
   <line x1="642" y1="291" x2="652" y2="291" style="stroke:#0b0;stroke-width:1;"/>
   <line x1="264" y1="263" x2="642" y2="291" style="stroke:#0b0;stroke-width:1;"/>
   <line x1="261.5" y1="263" x2="257.96446609407" y2="266.53553390593" style="stroke:#0b0;stroke-width:2;"/>
   <line x1="261.5" y1="263" x2="257.96446609407" y2="259.46446609407" style="stroke:#0b0;stroke-width:2;"/>
   <line x1="647" y1="291" x2="643.46446609407" y2="294.53553390593" style="stroke:#0b0;stroke-width:2;"/>
   <line x1="647" y1="291" x2="643.46446609407" y2="287.46446609407" style="stroke:#0b0;stroke-width:2;"/>
   <line x1="652" y1="411" x2="642" y2="411" style="stroke:#0b0;stroke-width:1;"/>
   <line x1="642" y1="291" x2="652" y2="291" style="stroke:#0b0;stroke-width:1;"/>
   <line x1="642" y1="411" x2="642" y2="291" style="stroke:#0b0;stroke-width:1;"/>
   <line x1="644.5" y1="411" x2="648.03553390593" y2="414.53553390593" style="stroke:#0b0;stroke-width:2;"/>
   <line x1="644.5" y1="411" x2="648.03553390593" y2="407.46446609407" style="stroke:#0b0;stroke-width:2;"/>
   <line x1="647" y1="291" x2="643.46446609407" y2="294.53553390593" style="stroke:#0b0;stroke-width:2;"/>
   <line x1="647" y1="291" x2="643.46446609407" y2="287.46446609407" style="stroke:#0b0;stroke-width:2;"/>
   <line x1="652" y1="391" x2="642" y2="391" style="stroke:#0b0;stroke-width:1;"/>
   <line x1="234" y1="397" x2="224" y2="397" style="stroke:#0b0;stroke-width:1;"/>
   <line x1="642" y1="391" x2="234" y2="397" style="stroke:#0b0;stroke-width:1;"/>
   <line x1="644.5" y1="391" x2="648.03553390593" y2="394.53553390593" style="stroke:#0b0;stroke-width:2;"/>
   <line x1="644.5" y1="391" x2="648.03553390593" y2="387.46446609407" style="stroke:#0b0;stroke-width:2;"/>
   <line x1="229" y1="397" x2="232.53553390593" y2="400.53553390593" style="stroke:#0b0;stroke-width:2;"/>
   <line x1="229" y1="397" x2="232.53553390593" y2="393.46446609407" style="stroke:#0b0;stroke-width:2;"/>
   <line x1="995" y1="80" x2="985" y2="80" style="stroke:#b0b;stroke-width:1;"/>
   <line x1="763" y1="49" x2="753" y2="49" style="stroke:#b0b;stroke-width:1;"/>
   <line x1="985" y1="80" x2="763" y2="49" style="stroke:#b0b;stroke-width:1;"/>
   <line x1="987.5" y1="80" x2="991.03553390593" y2="83.535533905933" style="stroke:#b0b;stroke-width:2;"/>
   <line x1="987.5" y1="80" x2="991.03553390593" y2="76.464466094067" style="stroke:#b0b;stroke-width:2;"/>
   <line x1="758" y1="49" x2="761.53553390593" y2="52.535533905933" style="stroke:#b0b;stroke-width:2;"/>
   <line x1="758" y1="49" x2="761.53553390593" y2="45.464466094067" style="stroke:#b0b;stroke-width:2;"/>
   <line x1="995" y1="100" x2="985" y2="100" style="stroke:#bbb;stroke-width:1;"/>
   <line x1="1017" y1="383" x2="1027" y2="383" style="stroke:#bbb;stroke-width:1;"/>
   <line x1="985" y1="100" x2="1017" y2="383" style="stroke:#bbb;stroke-width:1;"/>
   <line x1="987.5" y1="100" x2="991.03553390593" y2="103.53553390593" style="stroke:#bbb;stroke-width:2;"/>
   <line x1="987.5" y1="100" x2="991.03553390593" y2="96.464466094067" style="stroke:#bbb;stroke-width:2;"/>
   <line x1="1022" y1="383" x2="1018.4644660941" y2="386.53553390593" style="stroke:#bbb;stroke-width:2;"/>
   <line x1="1022" y1="383" x2="1018.4644660941" y2="379.46446609407" style="stroke:#bbb;stroke-width:2;"/>
   <line x1="620" y1="169" x2="610" y2="169" style="stroke:#0bf;stroke-width:1;"/>
   <line x1="264" y1="43" x2="254" y2="43" style="stroke:#0bf;stroke-width:1;"/>
   <line x1="610" y1="169" x2="264" y2="43" style="stroke:#0bf;stroke-width:1;"/>
   <line x1="612.5" y1="169" x2="616.03553390593" y2="172.53553390593" style="stroke:#0bf;stroke-width:2;"/>
   <line x1="612.5" y1="169" x2="616.03553390593" y2="165.46446609407" style="stroke:#0bf;stroke-width:2;"/>
   <line x1="259" y1="43" x2="262.53553390593" y2="46.535533905933" style="stroke:#0bf;stroke-width:2;"/>
   <line x1="259" y1="43" x2="262.53553390593" y2="39.464466094067" style="stroke:#0bf;stroke-width:2;"/>
   <line x1="310" y1="188" x2="300" y2="188" style="stroke:#b0b;stroke-width:1;"/>
   <line x1="264" y1="43" x2="254" y2="43" style="stroke:#b0b;stroke-width:1;"/>
   <line x1="300" y1="188" x2="264" y2="43" style="stroke:#b0b;stroke-width:1;"/>
   <line x1="302.5" y1="188" x2="306.03553390593" y2="191.53553390593" style="stroke:#b0b;stroke-width:2;"/>
   <line x1="302.5" y1="188" x2="306.03553390593" y2="184.46446609407" style="stroke:#b0b;stroke-width:2;"/>
   <line x1="259" y1="43" x2="262.53553390593" y2="46.535533905933" style="stroke:#b0b;stroke-width:2;"/>
   <line x1="259" y1="43" x2="262.53553390593" y2="39.464466094067" style="stroke:#b0b;stroke-width:2;"/>
   <line x1="1027" y1="423" x2="1017" y2="423" style="stroke:#333;stroke-width:1;"/>
   <line x1="531" y1="492" x2="521" y2="492" style="stroke:#333;stroke-width:1;"/>
   <line x1="1017" y1="423" x2="531" y2="492" style="stroke:#333;stroke-width:1;"/>
   <line x1="1019.5" y1="423" x2="1023.0355339059" y2="426.53553390593" style="stroke:#333;stroke-width:2;"/>
   <line x1="1019.5" y1="423" x2="1023.0355339059" y2="419.46446609407" style="stroke:#333;stroke-width:2;"/>
   <line x1="526" y1="492" x2="529.53553390593" y2="495.53553390593" style="stroke:#333;stroke-width:2;"/>
   <line x1="526" y1="492" x2="529.53553390593" y2="488.46446609407" style="stroke:#333;stroke-width:2;"/>
   <rect width="206" height="20" x="48" y="13" style="fill:#007;stroke:black;"/>
   <text width="206" height="20" x="53" y="27" style="fill:#fff;" font-family="Arial" font-size="16px"> customers</text>
   <rect width="206" height="20" x="48" y="33" style="fill:#aea;stroke:black;"/>
   <text width="206" height="20" x="53" y="47" style="fill:black;" font-family="Arial" font-size="16px">customerNumber</text>
   <rect width="206" height="20" x="48" y="53" style="fill:none;stroke:black;"/>
   <text width="206" height="20" x="53" y="67" style="fill:black;" font-family="Arial" font-size="16px">customerName</text>
   <rect width="206" height="20" x="48" y="73" style="fill:none;stroke:black;"/>
   <text width="206" height="20" x="53" y="87" style="fill:black;" font-family="Arial" font-size="16px">contactLastName</text>
   <rect width="206" height="20" x="48" y="93" style="fill:none;stroke:black;"/>
   <text width="206" height="20" x="53" y="107" style="fill:black;" font-family="Arial" font-size="16px">contactFirstName</text>
   <rect width="206" height="20" x="48" y="113" style="fill:none;stroke:black;"/>
   <text width="206" height="20" x="53" y="127" style="fill:black;" font-family="Arial" font-size="16px">phone</text>
   <rect width="206" height="20" x="48" y="133" style="fill:none;stroke:black;"/>
   <text width="206" height="20" x="53" y="147" style="fill:black;" font-family="Arial" font-size="16px">addressLine1</text>
   <rect width="206" height="20" x="48" y="153" style="fill:none;stroke:black;"/>
   <text width="206" height="20" x="53" y="167" style="fill:black;" font-family="Arial" font-size="16px">addressLine2</text>
   <rect width="206" height="20" x="48" y="173" style="fill:none;stroke:black;"/>
   <text width="206" height="20" x="53" y="187" style="fill:black;" font-family="Arial" font-size="16px">city</text>
   <rect width="206" height="20" x="48" y="193" style="fill:none;stroke:black;"/>
   <text width="206" height="20" x="53" y="207" style="fill:black;" font-family="Arial" font-size="16px">state</text>
   <rect width="206" height="20" x="48" y="213" style="fill:none;stroke:black;"/>
   <text width="206" height="20" x="53" y="227" style="fill:black;" font-family="Arial" font-size="16px">postalCode</text>
   <rect width="206" height="20" x="48" y="233" style="fill:none;stroke:black;"/>
   <text width="206" height="20" x="53" y="247" style="fill:black;" font-family="Arial" font-size="16px">country</text>
   <rect width="206" height="20" x="48" y="253" style="fill:none;stroke:black;"/>
   <text width="206" height="20" x="53" y="267" style="fill:black;" font-family="Arial" font-size="16px">salesRepEmployeeNumber</text>
   <rect width="206" height="20" x="48" y="273" style="fill:none;stroke:black;"/>
   <text width="206" height="20" x="53" y="287" style="fill:black;" font-family="Arial" font-size="16px">creditLimit</text>
   <rect width="137" height="20" x="652" y="261" style="fill:#007;stroke:black;"/>
   <text width="137" height="20" x="657" y="275" style="fill:#fff;" font-family="Arial" font-size="16px"> employees</text>
   <rect width="137" height="20" x="652" y="281" style="fill:#aea;stroke:black;"/>
   <text width="137" height="20" x="657" y="295" style="fill:black;" font-family="Arial" font-size="16px">employeeNumber</text>
   <rect width="137" height="20" x="652" y="301" style="fill:none;stroke:black;"/>
   <text width="137" height="20" x="657" y="315" style="fill:black;" font-family="Arial" font-size="16px">lastName</text>
   <rect width="137" height="20" x="652" y="321" style="fill:none;stroke:black;"/>
   <text width="137" height="20" x="657" y="335" style="fill:black;" font-family="Arial" font-size="16px">firstName</text>
   <rect width="137" height="20" x="652" y="341" style="fill:none;stroke:black;"/>
   <text width="137" height="20" x="657" y="355" style="fill:black;" font-family="Arial" font-size="16px">extension</text>
   <rect width="137" height="20" x="652" y="361" style="fill:none;stroke:black;"/>
   <text width="137" height="20" x="657" y="375" style="fill:black;" font-family="Arial" font-size="16px">email</text>
   <rect width="137" height="20" x="652" y="381" style="fill:none;stroke:black;"/>
   <text width="137" height="20" x="657" y="395" style="fill:black;" font-family="Arial" font-size="16px">officeCode</text>
   <rect width="137" height="20" x="652" y="401" style="fill:none;stroke:black;"/>
   <text width="137" height="20" x="657" y="415" style="fill:black;" font-family="Arial" font-size="16px">reportsTo</text>
   <rect width="137" height="20" x="652" y="421" style="fill:none;stroke:black;"/>
   <text width="137" height="20" x="657" y="435" style="fill:black;" font-family="Arial" font-size="16px">jobTitle</text>
   <rect width="106" height="20" x="118" y="367" style="fill:#007;stroke:black;"/>
   <text width="106" height="20" x="123" y="381" style="fill:#fff;" font-family="Arial" font-size="16px"> offices</text>
   <rect width="106" height="20" x="118" y="387" style="fill:none;stroke:black;"/>
   <text width="106" height="20" x="123" y="401" style="fill:black;" font-family="Arial" font-size="16px">officeCode</text>
   <rect width="106" height="20" x="118" y="407" style="fill:none;stroke:black;"/>
   <text width="106" height="20" x="123" y="421" style="fill:black;" font-family="Arial" font-size="16px">city</text>
   <rect width="106" height="20" x="118" y="427" style="fill:none;stroke:black;"/>
   <text width="106" height="20" x="123" y="441" style="fill:black;" font-family="Arial" font-size="16px">phone</text>
   <rect width="106" height="20" x="118" y="447" style="fill:none;stroke:black;"/>
   <text width="106" height="20" x="123" y="461" style="fill:black;" font-family="Arial" font-size="16px">addressLine1</text>
   <rect width="106" height="20" x="118" y="467" style="fill:none;stroke:black;"/>
   <text width="106" height="20" x="123" y="481" style="fill:black;" font-family="Arial" font-size="16px">addressLine2</text>
   <rect width="106" height="20" x="118" y="487" style="fill:none;stroke:black;"/>
   <text width="106" height="20" x="123" y="501" style="fill:black;" font-family="Arial" font-size="16px">state</text>
   <rect width="106" height="20" x="118" y="507" style="fill:none;stroke:black;"/>
   <text width="106" height="20" x="123" y="521" style="fill:black;" font-family="Arial" font-size="16px">country</text>
   <rect width="106" height="20" x="118" y="527" style="fill:none;stroke:black;"/>
   <text width="106" height="20" x="123" y="541" style="fill:black;" font-family="Arial" font-size="16px">postalCode</text>
   <rect width="106" height="20" x="118" y="547" style="fill:none;stroke:black;"/>
   <text width="106" height="20" x="123" y="561" style="fill:black;" font-family="Arial" font-size="16px">territory</text>
   <rect width="135" height="20" x="995" y="50" style="fill:#007;stroke:black;"/>
   <text width="135" height="20" x="1000" y="64" style="fill:#fff;" font-family="Arial" font-size="16px"> orderdetails</text>
   <rect width="135" height="20" x="995" y="70" style="fill:#aea;stroke:black;"/>
   <text width="135" height="20" x="1000" y="84" style="fill:black;" font-family="Arial" font-size="16px">orderNumber</text>
   <rect width="135" height="20" x="995" y="90" style="fill:none;stroke:black;"/>
   <text width="135" height="20" x="1000" y="104" style="fill:black;" font-family="Arial" font-size="16px">productCode</text>
   <rect width="135" height="20" x="995" y="110" style="fill:none;stroke:black;"/>
   <text width="135" height="20" x="1000" y="124" style="fill:black;" font-family="Arial" font-size="16px">quantityOrdered</text>
   <rect width="135" height="20" x="995" y="130" style="fill:none;stroke:black;"/>
   <text width="135" height="20" x="1000" y="144" style="fill:black;" font-family="Arial" font-size="16px">priceEach</text>
   <rect width="135" height="20" x="995" y="150" style="fill:none;stroke:black;"/>
   <text width="135" height="20" x="1000" y="164" style="fill:black;" font-family="Arial" font-size="16px">orderLineNumber</text>
   <rect width="133" height="20" x="620" y="19" style="fill:#007;stroke:black;"/>
   <text width="133" height="20" x="625" y="33" style="fill:#fff;" font-family="Arial" font-size="16px"> orders</text>
   <rect width="133" height="20" x="620" y="39" style="fill:#aea;stroke:black;"/>
   <text width="133" height="20" x="625" y="53" style="fill:black;" font-family="Arial" font-size="16px">orderNumber</text>
   <rect width="133" height="20" x="620" y="59" style="fill:none;stroke:black;"/>
   <text width="133" height="20" x="625" y="73" style="fill:black;" font-family="Arial" font-size="16px">orderDate</text>
   <rect width="133" height="20" x="620" y="79" style="fill:none;stroke:black;"/>
   <text width="133" height="20" x="625" y="93" style="fill:black;" font-family="Arial" font-size="16px">requiredDate</text>
   <rect width="133" height="20" x="620" y="99" style="fill:none;stroke:black;"/>
   <text width="133" height="20" x="625" y="113" style="fill:black;" font-family="Arial" font-size="16px">shippedDate</text>
   <rect width="133" height="20" x="620" y="119" style="fill:none;stroke:black;"/>
   <text width="133" height="20" x="625" y="133" style="fill:black;" font-family="Arial" font-size="16px">status</text>
   <rect width="133" height="20" x="620" y="139" style="fill:none;stroke:black;"/>
   <text width="133" height="20" x="625" y="153" style="fill:black;" font-family="Arial" font-size="16px">comments</text>
   <rect width="133" height="20" x="620" y="159" style="fill:none;stroke:black;"/>
   <text width="133" height="20" x="625" y="173" style="fill:black;" font-family="Arial" font-size="16px">customerNumber</text>
   <rect width="133" height="20" x="310" y="158" style="fill:#007;stroke:black;"/>
   <text width="133" height="20" x="315" y="172" style="fill:#fff;" font-family="Arial" font-size="16px"> payments</text>
   <rect width="133" height="20" x="310" y="178" style="fill:#aea;stroke:black;"/>
   <text width="133" height="20" x="315" y="192" style="fill:black;" font-family="Arial" font-size="16px">customerNumber</text>
   <rect width="133" height="20" x="310" y="198" style="fill:none;stroke:black;"/>
   <text width="133" height="20" x="315" y="212" style="fill:black;" font-family="Arial" font-size="16px">checkNumber</text>
   <rect width="133" height="20" x="310" y="218" style="fill:none;stroke:black;"/>
   <text width="133" height="20" x="315" y="232" style="fill:black;" font-family="Arial" font-size="16px">paymentDate</text>
   <rect width="133" height="20" x="310" y="238" style="fill:none;stroke:black;"/>
   <text width="133" height="20" x="315" y="252" style="fill:black;" font-family="Arial" font-size="16px">amount</text>
   <rect width="121" height="20" x="400" y="462" style="fill:#007;stroke:black;"/>
   <text width="121" height="20" x="405" y="476" style="fill:#fff;" font-family="Arial" font-size="16px"> productlines</text>
   <rect width="121" height="20" x="400" y="482" style="fill:none;stroke:black;"/>
   <text width="121" height="20" x="405" y="496" style="fill:black;" font-family="Arial" font-size="16px">productLine</text>
   <rect width="121" height="20" x="400" y="502" style="fill:none;stroke:black;"/>
   <text width="121" height="20" x="405" y="516" style="fill:black;" font-family="Arial" font-size="16px">textDescription</text>
   <rect width="121" height="20" x="400" y="522" style="fill:none;stroke:black;"/>
   <text width="121" height="20" x="405" y="536" style="fill:black;" font-family="Arial" font-size="16px">htmlDescription</text>
   <rect width="121" height="20" x="400" y="542" style="fill:none;stroke:black;"/>
   <text width="121" height="20" x="405" y="556" style="fill:black;" font-family="Arial" font-size="16px">image</text>
   <rect width="144" height="20" x="1027" y="353" style="fill:#007;stroke:black;"/>
   <text width="144" height="20" x="1032" y="367" style="fill:#fff;" font-family="Arial" font-size="16px"> products</text>
   <rect width="144" height="20" x="1027" y="373" style="fill:none;stroke:black;"/>
   <text width="144" height="20" x="1032" y="387" style="fill:black;" font-family="Arial" font-size="16px">productCode</text>
   <rect width="144" height="20" x="1027" y="393" style="fill:none;stroke:black;"/>
   <text width="144" height="20" x="1032" y="407" style="fill:black;" font-family="Arial" font-size="16px">productName</text>
   <rect width="144" height="20" x="1027" y="413" style="fill:none;stroke:black;"/>
   <text width="144" height="20" x="1032" y="427" style="fill:black;" font-family="Arial" font-size="16px">productLine</text>
   <rect width="144" height="20" x="1027" y="433" style="fill:none;stroke:black;"/>
   <text width="144" height="20" x="1032" y="447" style="fill:black;" font-family="Arial" font-size="16px">productScale</text>
   <rect width="144" height="20" x="1027" y="453" style="fill:none;stroke:black;"/>
   <text width="144" height="20" x="1032" y="467" style="fill:black;" font-family="Arial" font-size="16px">productVendor</text>
   <rect width="144" height="20" x="1027" y="473" style="fill:none;stroke:black;"/>
   <text width="144" height="20" x="1032" y="487" style="fill:black;" font-family="Arial" font-size="16px">productDescription</text>
   <rect width="144" height="20" x="1027" y="493" style="fill:none;stroke:black;"/>
   <text width="144" height="20" x="1032" y="507" style="fill:black;" font-family="Arial" font-size="16px">quantityInStock</text>
   <rect width="144" height="20" x="1027" y="513" style="fill:none;stroke:black;"/>
   <text width="144" height="20" x="1032" y="527" style="fill:black;" font-family="Arial" font-size="16px">buyPrice</text>
   <rect width="144" height="20" x="1027" y="533" style="fill:none;stroke:black;"/>
   <text width="144" height="20" x="1032" y="547" style="fill:black;" font-family="Arial" font-size="16px">MSRP</text>
</svg>
